<svg version="1.1" id="图层_1" xmlns="http://www.w3.org/2000/svg" x="0" y="0" viewBox="0 0 60 60" style="enable-background:new 0 0 60 60" xml:space="preserve"><style>.st0{fill:none;stroke:#4461eb;stroke-width:3;stroke-linecap:round;stroke-linejoin:round;stroke-miterlimit:10}.st2{fill:#4461eb}</style><path class="st0" d="M15.3 53h-3.6c-2.2 0-3.8-1.7-3.8-3.8V11.5c0-2.2 1.7-3.8 3.8-3.8h3.6c2 0 3.8 1.8 3.8 3.8v37.8c0 2-1.8 3.7-3.8 3.7z"/><path d="M15.3 53h-1.2c-2.2 0-3.8-1.7-3.8-3.8V22c0-2.2 1.7-3.8 3.8-3.8h1.2c2 0 3.8 1.7 3.8 3.8v27.1c0 2.2-1.8 3.9-3.8 3.9zM32 53h-1.2c-2 0-3.8-1.7-3.8-3.8V22c0-2.2 1.8-3.8 3.8-3.8H32c2 0 3.8 1.7 3.8 3.8v27.1c.1 2.2-1.6 3.9-3.8 3.9z" style="fill:#4461eb;opacity:.1;enable-background:new"/><path class="st0" d="M32 53h-3.6c-2 0-3.8-1.7-3.8-3.8V11.5c0-2.2 1.8-3.8 3.8-3.8H32c2.2 0 3.8 1.8 3.8 3.8v37.8c.1 2-1.6 3.7-3.8 3.7z"/><path class="st2" d="M14.5 33.9h-2.2c-.9 0-1.5-.6-1.5-1.5s.6-1.5 1.5-1.5h2.2c.9 0 1.5.6 1.5 1.5.2.8-.6 1.5-1.5 1.5zm0 6.4h-2.2c-.8 0-1.5-.8-1.5-1.5 0-.9.6-1.5 1.5-1.5h2.2c.9 0 1.5.6 1.5 1.5.2.7-.6 1.5-1.5 1.5zm0 6.3h-2.2c-.8 0-1.5-.6-1.5-1.5s.6-1.5 1.5-1.5h2.2c.9 0 1.5.6 1.5 1.5.2.8-.6 1.5-1.5 1.5zm16.9-12.7h-2.2c-.9 0-1.5-.6-1.5-1.5s.6-1.5 1.5-1.5h2.2c.9 0 1.5.6 1.5 1.5 0 .8-.6 1.5-1.5 1.5zm0 6.4h-2.2c-.9 0-1.5-.6-1.5-1.5s.6-1.5 1.5-1.5h2.2c.9 0 1.5.6 1.5 1.5 0 .7-.6 1.5-1.5 1.5zm0 6.3h-2.2c-.9 0-1.5-.6-1.5-1.5s.6-1.5 1.5-1.5h2.2c.9 0 1.5.6 1.5 1.5 0 .8-.6 1.5-1.5 1.5z"/><path d="M56.5 58.1h-53c-.5 0-1-.5-1-1V3.3c0-.6.5-1 1-1h53c.5 0 1 .4 1 1v53.8c0 .6-.4 1-1 1z" style="fill:none;stroke:#4461eb;stroke-width:3;stroke-miterlimit:10"/><path class="st2" d="M30.6 1.7v56.1H58V1.7H30.6zM55.4 28 35.2 46.1v-3.9l20.2-17.7V28zm0-11.6L35.2 34.5v-3.9l20.2-17.7v3.5z"/></svg>